<svg xmlns="http://www.w3.org/2000/svg" xmlns:xlink="http://www.w3.org/1999/xlink" x="0px" y="0px"
	 viewBox="0 0 1032.9 1156.4" style="enable-background:new 0 0 1032.9 1156.4;" xml:space="preserve">
<style type="text/css">
	.st0{fill:#FFFFFF;}
</style>
<g id="Layer_2_1_">
	<g id="Layer_1-2">
		<path class="st0" d="M850.6,159.4c-94.8-75.9-212.7-117.2-334.2-117l0,0c0,0.3,0,0.5,0,0.8c-0.1,30.6-23.2,56.2-53.6,59.4
			c-107.8,11.9-208.4,60.2-285,137c-93.3,93.3-140,215.9-140,338.5c0,56.1,9.9,111.8,29.2,164.5c25.1,68.3,112.6,87.6,164,36.1
			L850.6,159.4z"/>
		<path class="st0" d="M895,956.7c-21.6-21.7-23.4-56.1-4.3-79.9C960.2,789.8,995,684,995,578.2c0-56.1-9.9-111.8-29.2-164.5
			c-25.1-68.3-112.5-87.6-164-36.1c-27.5,27.5-36.4,68.5-23,105c27.8,76.2,21.2,160.8-18.3,231.7c-19.4,34.8-66.6,41.5-94.7,13.4
			l0,0c-18.9-19-22.9-48.3-9.8-71.8c13.2-23.7,20.1-50.4,20-77.6v-0.6c-0.1-27.4-33.4-40.9-52.7-21.5l-441,441
			c94.8,75.9,212.7,117.2,334.2,117c147.9,0,281.9-60,378.9-156.9l-0.2-0.2L895,956.7z"/>
	</g>
</g>
</svg>
