<svg xmlns="http://www.w3.org/2000/svg" viewBox="0 0 1032.87 1156.38"><defs><style>.cls-1{fill:#fff;}</style></defs><g id="Layer_2" data-name="Layer 2"><g id="Layer_1-2" data-name="Layer 1"><path class="cls-1" d="M877.06,126.23A575.76,575.76,0,0,0,516.44,0h0c0,.3,0,.59,0,.89A64.65,64.65,0,0,1,458.64,65,514.19,514.19,0,0,0,151.09,212.85C50.36,313.57,0,445.88,0,578.19A515.6,515.6,0,0,0,31.53,755.75c27.05,73.74,121.46,94.56,177,39Z"/><path class="cls-1" d="M924.94,986.7a64.72,64.72,0,0,1-4.62-86.23c75-93.89,112.55-208.08,112.55-322.28a515.54,515.54,0,0,0-31.53-177.55c-27.05-73.74-121.45-94.56-177-39a107.73,107.73,0,0,0-24.81,113.3,301.47,301.47,0,0,1-19.74,250c-20.93,37.53-71.83,44.81-102.23,14.43h0A64.81,64.81,0,0,1,667,661.92a172.3,172.3,0,0,0,21.62-83.73v-.68c-.12-29.53-36-44.1-56.9-23.23L155.81,1030.15a575.71,575.71,0,0,0,360.63,126.23c159.66,0,304.21-64.71,408.85-169.35l-.23-.21Z"/></g></g></svg>