<svg xmlns="http://www.w3.org/2000/svg" preserveAspectRatio="none" viewBox="0 0 930.88 930.88"><defs><style>.cls-1{fill:#fff;}</style></defs><g id="Layer_2" data-name="Layer 2"><g id="Layer_1-2" data-name="Layer 1"><path class="cls-1" d="M63.48,422.51c31.23,40.67,71.76,68.17,99,113.71,25.08,42,36.76,97.81,31.61,151.09-3.83,39.61-16.07,82.24-1.86,117.37,9.16,22.66,27.42,35.93,45.52,44.68,43.19,20.87,91.34,22.86,135.4,5.58,8.33-3.27,17.38-8.22,20.93-18.83,4.06-12.16-.88-26.21-6.61-37.1C361.16,749.07,315,714.53,306,654.67c-1-6.76-1.45-14.11.89-20.25C310.2,625.7,318,622,325.2,620.32c51.32-12.2,100.74,36,130.47,93.28s46.71,125,76.19,182.51c8.89,17.36,21.24,35.27,37,34.76,21.36-.69,33.41-36.15,29.36-64.22S580,815.31,570.5,789.71c-19.19-51.59-19.41-111.84-16.86-169.37,1.62-36.58,2.68-78.65-17.41-103.54C527.52,506,516,500.29,504.5,496.31c-63-21.87-131.61.86-193.6-25.63-16.23-6.94-34.13-22.22-33.51-45,.78-29.07,28.81-39.33,50.5-41.39l291.58-27.73c11.27-1.07,26.16,1.26,28.46,16.06-32.39,21.82-71.8,5.94-107.28,16-17,4.82-35.77,23.05-31.67,45.6a37.31,37.31,0,0,0,10.21,19.18c28.92,29.65,72.36-1,106.58,15.78,19,9.3,31.43,30.89,40.46,55.9l8.77,31c3.74,19.29,6.56,38.9,8.41,58.67,2,21.2,3,43,9.22,62.65s19.3,37.19,35.24,38.41c14.73,1.13,28.23-11.75,37.38-27.24,10.14-17.19,16.62-38.88,15.65-60.74-2.3-51.46-43.87-95.75-32.31-144.93,5.92-25.17,24.47-41.64,32.13-65.95,2.8-8.87,4.28-19.05,9.58-25.57,4.3-5.31,10.32-7.12,16-9,29.07-9.64,56.85-26.17,81.67-48.6,21.67-19.58,42.6-47.89,42.91-82.88.38-42.22-29.61-74.21-59.68-87-12.44-5.29-25.7-8.76-36.29-19-6.89-6.64-12.24-15.78-19-22.68-12.56-12.84-28.87-16.88-44.61-18.82A221.42,221.42,0,0,0,679,111.62c-13.87,4.25-29.5,9.49-41.43-.87-8.82-7.67-12.92-21.76-17.62-34.36C605.06,36.49,576.65,2.82,543.4.14s-67.95,34.7-65.5,79.16c1.65,30,18,54.36,34,75.38,5.37,7,11.14,14.87,11.86,24.88,1.05,14.33-8.54,25.8-17.77,33.19-33.84,27.08-74.43,34.65-113.85,35.51-90.75,2-181.79-29.29-260.61-89.5-19.59-15-40.71-37.14-39.95-67.3.42-16.56,7.6-31.34,10.59-47.41S101.37,6.58,89.26,3.14C80.58.69,72.35,8.8,65.89,16.94,24.83,68.76.46,143.51,0,219S23,369.83,63.48,422.51Z"/></g></g></svg>