<svg xmlns="http://www.w3.org/2000/svg"  preserveAspectRatio="none" viewBox="0 0 7431.67 7431.67"><defs><style>.cls-1{fill:#fff;}</style></defs><g id="Layer_2" data-name="Layer 2"><g id="_1993_fortaleza_ceara_logo_thin" data-name="1993 fortaleza ceara + logo thin"><path class="cls-1" d="M6343.33,1088.34C5641.49,386.51,4708.36,0,3715.83,0S1790.17,386.51,1088.34,1088.34,0,2723.3,0,3715.83s386.51,1925.66,1088.34,2627.5,1635,1088.34,2627.49,1088.34,1925.66-386.52,2627.5-1088.34,1088.34-1635,1088.34-2627.5S7045.15,1790.17,6343.33,1088.34Zm-2703.08-20.28C2960,1086.92,2323.92,1360.05,1842,1842c-499.76,499.75-775,1165.23-775,1873.84,0,672.76,254,1314.86,715.37,1808a75.59,75.59,0,0,0,108.64,1.82L3290.24,4126.45q4,4,8,7.83,3.49,3.63,7,7.11L1834.62,5612c-2.6-2.45-5.13-4.89-7.59-7.35-10-10-19.63-21.07-29.85-32.82-8.34-9.59-17-19.5-26.38-29.51-468.27-498.35-726.16-1147-726.16-1826.51,0-713.51,277.85-1384.31,782.37-1888.83,486.66-486.66,1128.07-762.41,1813.24-781.32Zm107.48,2647.77a31.9,31.9,0,0,1-31.9,31.9h0a31.9,31.9,0,0,1-31.9-31.9h0a31.9,31.9,0,0,1,31.9-31.9h0a31.9,31.9,0,0,1,31.9,31.9ZM5657.37,5550.47l-15-15c466.37-493.15,722.27-1136.33,722.28-1819.65,0-672.78-254.07-1314.88-715.37-1808a75.59,75.59,0,0,0-108.63-1.81L4817,2629.64a75.57,75.57,0,0,0-2.87,103.86c243.2,271.57,377.14,620.44,377.15,982.33,0,368.81-134.42,717-380.05,988.53l-15-15c241.22-267.19,373.21-610,373.21-973.53,0-353.57-129.35-694.82-364.23-960.89a75.59,75.59,0,0,0-110.11-3.42l-553.56,553.56q-3.54-3.59-7.12-7c-2.58-2.71-5.21-5.35-7.84-8L5597.05,1819.63q3.9,3.66,7.6,7.35c9.94,10,19.58,21,29.8,32.78,8.36,9.6,17,19.54,26.43,29.57h0c468.27,498.33,726.16,1147,726.16,1826.5C6387,4404.08,6128.49,5052.62,5657.37,5550.47Z"/></g></g></svg>