<svg xmlns="http://www.w3.org/2000/svg" viewBox="0 0 237.03 237.03"><defs><style>.cls-1{fill:#fff;}</style></defs><g id="Layer_2" data-name="Layer 2"><g id="_1993_fortaleza_ceara_logo_thin" data-name="1993 fortaleza ceara + logo thin"><path class="cls-1" d="M56.48,176.77c.3.32.58.64.84.94s.64.73,1,1l.25.24,46.9-46.91-.22-.23-.26-.25L60.31,176.24a2.39,2.39,0,0,1-3.46-.06A84.41,84.41,0,0,1,116.11,34.07v-.72A85.1,85.1,0,0,0,56.48,176.77Z"/><path class="cls-1" d="M180.55,60.26h0c-.3-.32-.57-.64-.84-.94s-.63-.73-1-1l-.24-.23-46.9,46.9.25.25.22.23,17.66-17.66a2.42,2.42,0,0,1,3.51.11,46.35,46.35,0,0,1-.28,61.7l.47.48a46.93,46.93,0,0,0,.1-62.86,2.41,2.41,0,0,1,.09-3.32l23.08-23.08a2.42,2.42,0,0,1,3.46.06,84.44,84.44,0,0,1-.22,115.7l.48.48a85,85,0,0,0,.11-116.77Z"/><path class="cls-1" d="M202.32,34.71A118.52,118.52,0,0,0,34.71,202.32,118.52,118.52,0,0,0,202.32,34.71Zm-83.8,201.65A117.84,117.84,0,1,1,236.36,118.52,118,118,0,0,1,118.52,236.36Z"/><rect class="cls-1" x="117.5" y="117.5" width="2.03" height="2.03" rx="1.02"/></g></g></svg>