<svg xmlns="http://www.w3.org/2000/svg" viewBox="0 0 7431.67 7431.67"><defs><style>.cls-1{fill:#fff;}</style></defs><g id="Layer_2" data-name="Layer 2"><g id="_1993_fortaleza_ceara_logo_thin" data-name="1993 fortaleza ceara + logo thin"><path class="cls-1" d="M1770.8,5542.33c9.41,10,18,19.93,26.38,29.52,10.22,11.75,19.88,22.85,29.85,32.82,2.46,2.46,5,4.9,7.59,7.35L3305.25,4141.39q-3.54-3.48-7-7.11-4-3.82-8-7.83L1891,5525.67a75.59,75.59,0,0,1-108.64-1.82C1321.06,5030.69,1067,4388.59,1067,3715.83c0-708.61,275.21-1374.09,775-1873.84,481.93-481.94,1118-755.07,1798.26-773.93v-22.38C2955.08,1064.59,2313.67,1340.34,1827,1827c-504.52,504.52-782.37,1175.32-782.37,1888.83C1044.64,4395.33,1302.53,5044,1770.8,5542.33Z"/><path class="cls-1" d="M5660.87,1889.33h0c-9.44-10-18.07-20-26.43-29.57-10.22-11.74-19.86-22.83-29.8-32.78q-3.7-3.69-7.6-7.35L4126.59,3290.1c2.63,2.6,5.26,5.24,7.84,8q3.58,3.45,7.12,7l553.56-553.56a75.59,75.59,0,0,1,110.11,3.42c234.88,266.07,364.23,607.32,364.23,960.89,0,363.5-132,706.34-373.21,973.53l15,15c245.63-271.55,380-619.72,380.05-988.53,0-361.89-133.95-710.76-377.15-982.33a75.57,75.57,0,0,1,2.87-103.86L5540.65,1906a75.59,75.59,0,0,1,108.63,1.81c461.3,493.14,715.36,1135.24,715.37,1808,0,683.32-255.91,1326.5-722.28,1819.65l15,15C6128.49,5052.62,6387,4404.08,6387,3715.83,6387,3036.32,6129.14,2387.66,5660.87,1889.33Z"/><path class="cls-1" d="M6343.33,1088.34C5641.49,386.51,4708.36,0,3715.83,0S1790.17,386.51,1088.34,1088.34,0,2723.3,0,3715.83s386.51,1925.66,1088.34,2627.5,1635,1088.34,2627.49,1088.34,1925.66-386.52,2627.5-1088.34,1088.34-1635,1088.34-2627.5S7045.15,1790.17,6343.33,1088.34ZM3715.83,7410.49c-2037.24,0-3694.65-1657.42-3694.65-3694.66S1678.59,21.18,3715.83,21.18,7410.49,1678.59,7410.49,3715.83,5753.07,7410.49,3715.83,7410.49Z"/><rect class="cls-1" x="3683.93" y="3683.93" width="63.8" height="63.8" rx="31.9"/></g></g></svg>